<svg width="56" height="16" viewBox="0 0 56 16" xmlns="http://www.w3.org/2000/svg"><path d="M6.969 12.94H5.55V4.268h2.39l2.086 6.1 2.15-6.1h2.098v8.672h-1.664V6.395l-2.115 5.965H9.043L6.969 6.307v6.633zm11.279 0h-1.805V4.268h1.805v8.672zm3.943 0h-1.77V4.268h3.024q1.319 0 1.855.273.536.272.808.77.273.498.273 1.254 0 1.453-.935 2.215-.934.762-2.505.762h-.75v3.398zm0-7.482v2.894h.352q1.031 0 1.515-.477.483-.478.483-1.122 0-.364-.152-.66-.153-.296-.472-.465-.32-.17-1.022-.17h-.704zm9.457 7.482h-1.804V9.307l-2.912-5.039h1.992l2.115 3.662 2.209-3.662h1.43l-3.03 5.027v3.645zm5.79 0H36.02V4.268h2.39l2.086 6.1 2.15-6.1h2.098v8.672H43.08V6.395l-2.115 5.965h-1.453l-2.075-6.053v6.633zm15.17 0h-5.696V4.268h5.42v1.19h-3.615v2.42h2.965v1.195h-2.965v2.637h3.89v1.23zm2.777 0H53.65v-1.734h1.735v1.734zm0-4.7H53.65V6.507h1.735v1.735z" fill="#fff"/></svg>