<svg width="139" height="23" viewBox="0 0 139 23" xmlns="http://www.w3.org/2000/svg"><path d="M8.273 17.17H6.501V6.33h2.988l2.607 7.625 2.688-7.625h2.622v10.84h-2.08V8.989l-2.644 7.456h-1.816L8.273 8.879v8.291zm15.88-.864h-.096q-.469.454-.813.652-.344.197-.718.296-.373.1-.79.1-1.078 0-1.726-.671-.648-.67-.648-1.644 0-1.187.97-1.982.971-.794 3.146-.794h.579v-.733q0-.74-.41-.996t-1.04-.256q-1.245 0-2.542.718V9.502q1.472-.557 2.93-.557.893 0 1.597.242.703.241 1.124.75.421.51.421 1.52v3.56q0 .652.201.798.202.147.4.147.117 0 .293-.03l.05 1.216q-.688.205-1.222.205-.6 0-1.037-.201-.436-.202-.67-.846zm-.096-1.165v-1.633h-.513q-1.062 0-1.582.377t-.52.941q0 .462.315.758.315.297.74.297.38 0 .773-.187.391-.187.787-.553zm-.718-7.368h-1.494l1.626-2.168h1.94L23.34 7.773zm5.383 9.14v-1.589q1.612.674 2.754.674.608 0 .97-.256.363-.257.363-.652 0-.344-.27-.579-.272-.227-.828-.446l-.733-.293q-1.135-.455-1.677-1.004-.542-.542-.542-1.413 0-1.048.817-1.729.816-.681 2.494-.681.981 0 2.336.286v1.523q-1.304-.454-2.16-.454-.674 0-1.011.23-.337.231-.337.598 0 .285.22.505.212.22.776.432l.63.242q1.56.593 2.043 1.15.476.564.476 1.347 0 1.018-.875 1.784-.875.765-2.545.765-1.421 0-2.9-.44zm15.652.257h-2.168V9.128h2.168v8.042zm0-9.397h-2.168v-1.81h2.168v1.81zm4.878 9.397h-2.168V9.128h2.168v1.516q.586-.93 1.297-1.315.71-.384 1.442-.384.953 0 1.637.611.685.612.685 1.93v5.684h-2.168v-5.149q0-.66-.12-.893-.121-.235-.33-.356-.209-.12-.465-.12-.447 0-.93.296-.484.297-1.048 1.161v5.061zm10.078 0h-2.168v-6.687h-1.106V9.128h1.106v-.579q0-1.684.773-2.406.773-.721 2.194-.721.96 0 1.977.278v1.465q-.923-.388-1.655-.388-.344 0-.59.135-.245.136-.388.455-.143.318-.143 1.102v.659h2.036v1.355H59.33v6.687zm7.251.183q-1.303 0-2.237-.509-.934-.509-1.425-1.498-.49-.989-.49-2.197 0-1.201.483-2.186.483-.985 1.42-1.502.938-.516 2.25-.516 1.318 0 2.251.516.934.517 1.421 1.502t.487 2.186q0 1.209-.49 2.197-.491.989-1.425 1.498-.934.51-2.245.51zm0-1.355q.923 0 1.388-.81.465-.809.465-2.039 0-1.223-.465-2.036t-1.388-.813q-.915 0-1.38.813-.465.813-.465 2.036 0 1.23.465 2.04t1.38.81zm8.32 1.172h-2.167V9.128h2.168v1.516q.388-.776 1.062-1.238.673-.461 1.501-.461.198 0 .403.044v1.933q-.454-.168-.857-.168-.645 0-1.172.326-.527.326-.937.985v5.105zm6.732 0h-2.08V9.128h2.08v1.516q.41-.732 1.076-1.216.667-.483 1.634-.483.585 0 1.018.18.432.179.765.563.333.385.428.956.601-.908 1.22-1.304.619-.395 1.505-.395.981 0 1.593.575t.612 1.857v5.793h-2.08v-5.083q0-.9-.29-1.165-.289-.263-.648-.263-.49 0-.97.351-.48.352-.942 1.055v5.105h-2.08v-5.083q0-.894-.282-1.165-.282-.27-.677-.27-.476 0-.949.351-.472.352-.933 1.062v5.105zm16.501-.864h-.095q-.469.454-.813.652-.344.197-.718.296-.373.1-.791.1-1.077 0-1.725-.671-.648-.67-.648-1.644 0-1.187.97-1.982.97-.794 3.146-.794h.579v-.733q0-.74-.41-.996t-1.04-.256q-1.245 0-2.542.718V9.502q1.472-.557 2.93-.557.893 0 1.596.242.704.241 1.125.75.42.51.42 1.52v3.56q0 .652.202.798.202.147.4.147.117 0 .292-.03l.052 1.216q-.689.205-1.223.205-.601 0-1.037-.201-.436-.202-.67-.846zm-.095-1.165v-1.633h-.513q-1.062 0-1.582.377t-.52.941q0 .462.315.758.315.297.74.297.38 0 .772-.187t.788-.553zm10.81.352v1.501q-1.347.36-2.512.36-2.065 0-3.105-1.22t-1.04-2.992q0-1.86 1.098-3.029 1.099-1.168 3.23-1.168.982 0 2.263.315v1.567q-1.333-.432-2.124-.432-1.128 0-1.648.853-.52.854-.52 1.879 0 .791.3 1.476.301.685.84 1 .538.315 1.212.315.974 0 2.006-.425zm4.22 1.677H110.9V9.128h2.168v8.042zm0-9.397H110.9v-1.81h2.168v1.81zm6.137 9.58q-1.304 0-2.238-.509-.934-.509-1.424-1.498-.491-.989-.491-2.197 0-1.201.483-2.186.484-.985 1.421-1.502.938-.516 2.249-.516 1.318 0 2.252.516.934.517 1.42 1.502.488.985.488 2.186 0 1.209-.49 2.197-.491.989-1.425 1.498-.934.51-2.245.51zm0-1.355q.923 0 1.388-.81.465-.809.465-2.039 0-1.223-.465-2.036t-1.388-.813q-.916 0-1.38.813-.466.813-.466 2.036 0 1.23.465 2.04t1.38.81zm.124-8.225h-1.494l1.626-2.168h1.941l-2.073 2.168zm8.196 9.397h-2.168V9.128h2.168v1.516q.586-.93 1.297-1.315.71-.384 1.442-.384.953 0 1.637.611.685.612.685 1.93v5.684h-2.168v-5.149q0-.66-.12-.893-.122-.235-.33-.356-.209-.12-.465-.12-.447 0-.93.296-.484.297-1.048 1.161v5.061z" fill="#95c944"/></svg>